<svg xmlns="http://www.w3.org/2000/svg" width="682.667" height="682.667" version="1.0" viewBox="0 0 512 512"><path d="M236.5 7.1c-32.5 2.2-62.8 10.4-93 25.4-42.8 21.1-75.9 50.3-102 90C10.5 169.7-3.7 226 1 283.5c3.5 42.8 16.9 82.1 39.8 117.1 30.9 47.2 71.7 80.6 122 100 14.3 5.6 17.8 6.1 22.7 3.8 2.7-1.3 4.3-3 5.7-6.1 1.8-4.1 1.9-6 1.2-28.6l-.7-24.3-8.6 1.4c-15.3 2.3-40.8-.2-51.7-5.2-13.2-6.1-19.4-12.9-26.5-29.1-7-16.2-14.7-26.5-25-33.5-6.6-4.6-12.1-10.6-11.7-12.8 1.1-5.6 14.8-5.3 26.5.4 10 5 16.9 11.5 25.5 24.1 7.9 11.7 13.4 16.8 22.8 21.5 5.7 2.9 7.7 3.3 16.5 3.6 10.3.4 20.7-1.2 29.1-4.4 4.1-1.6 4.3-1.8 5.8-8.5 1.9-8.6 5.6-16.4 10.6-22.8l3.9-4.9-8.2-1.1c-26.4-3.8-45.2-10.2-62.7-21.5-22.9-14.8-36.5-37.9-43.1-73.1-2-10.9-2.3-38.9-.5-49.2 2.9-16.7 9.8-31.9 20-44.5l4.5-5.5-2-6.2c-5.2-16.8-4.4-34 2.3-55.4 2.4-7.4 2.2-7.2 11.8-6.7 10.9.6 36.7 11.1 53.1 21.5 3.8 2.5 7.9 4.5 9 4.5s5.5-.9 9.7-1.9c16.4-4.2 29.7-5.6 53.2-5.6s36.8 1.4 53.2 5.6c4.2 1 8.5 1.9 9.6 1.9 1 0 6.1-2.6 11.3-5.7 22.8-13.7 48.4-22.9 57.4-20.5 2.6.7 3.3 1.7 5.3 7.5 4.3 12.5 5.5 21 5 35.1-.4 9.5-1.1 14.8-2.6 19.5l-2.1 6.4 4.4 5.4c8.9 10.9 15.5 24.4 19.2 38.9 2.2 8.9 2.5 41.7.4 54.4-3.3 20.3-12.3 42.5-22.1 54.7-12 15-33.1 28-56.3 34.7-4.7 1.4-14.7 3.5-22.1 4.7l-13.4 2.2 3.8 4.9c4.7 5.9 8.5 13.7 10.6 22 1.4 5.2 1.7 13.7 2 50.3.5 49 .5 48.9 7.2 52.1 4.6 2.1 8.3 1.5 22.9-4.2 49.3-19 91-53.3 121.5-99.8 36.2-55.3 49-123.9 35.4-190.8-9.8-48.2-34.2-93.2-69.7-128.7-20.6-20.5-41.3-35.2-68.4-48.6-31.1-15.4-59.9-23.1-95-25.5-16.6-1.1-19.6-1.1-37 .1"/></svg>