<svg xmlns="http://www.w3.org/2000/svg" width="682.667" height="682.667" version="1.0" viewBox="0 0 512 512"><path d="M231.5 1.1c-80 8.3-150.1 51.8-192.7 119.6-60.4 96-49.1 222.9 27.2 306.5 42.3 46.3 95.1 74 158.5 83 11.9 1.7 51.2 1.6 63.5-.1 58.2-8 109.6-33.5 149.1-73.8 13-13.2 15.7-16.3 24.3-27.7 25.6-34.2 42.3-75.6 48.8-121.1 1.7-11.8 1.7-51.2 0-63-7.1-49.6-26.2-94.3-55.7-130-41.8-50.6-98.2-82.5-163-92.1-12.3-1.8-47.8-2.6-60-1.3m-66 110.5c7.1 2.5 15.6 11.1 18 18.4 4.2 12.3 1.6 25.1-6.9 33.6-7.1 7.1-14.2 9.7-26.1 9.7-14.8.1-24.8-5.2-31-16.4-2.8-5-3-6.2-3-15.4 0-8.4.4-10.7 2.2-14.1 4.7-8.8 11.6-14.4 21.2-17.1 5.9-1.7 19-1 25.6 1.3M355 197.4c3 .9 9.3 3.4 13.9 5.7 14.5 7.2 25.2 19.8 31.3 37.1 5.5 15.7 5.8 19.5 5.8 85.9V387h-62v-54.8c0-43.2-.3-56.1-1.4-61.3-2.6-12.2-7.5-19.2-16.4-23.6-7.9-3.9-19.1-4-27.2-.2-7.2 3.4-13.2 9.6-17.2 17.7l-3.3 6.7-.3 57.7-.3 57.8H216V199h62v13.2l.1 13.3 2.5-3c1.4-1.7 4.3-5.1 6.4-7.7 7.3-8.6 21.7-16.5 34.5-18.8 6.9-1.2 26.9-.4 33.5 1.4m-173.2 95.8.2 93.8h-63v-93.3c0-51.4.3-93.7.7-94 .4-.4 14.4-.6 31.2-.5l30.6.3z"/></svg>